#!OML:ASF X:\für Bonn\!DataBase\2005_08_10_Bjorn_Final\c3d\bjorn.ASF
:FULLY-SPECIFIED
:DEGREES
257
root -10.7028 17.6683 9.72077 -1464.99 64.4541 -31.0541
lowerback 0.81536 1.2064 9.37795
upperback 8.87885 1.30692 2.8218
thorax 9.1591 1.34755 -2.09991
lowerneck -6.15384 4.92791 4.05813
upperneck 2.78939 6.67234 -8.20203
head 2.45949 3.17195 -3.12472
rclavicle 3.73715e-014 -3.73715e-014
rhumerus -29.5607 12.9381 -97.364
rradius 83.489
rwrist 2.04123
rhand -34.9161 32.8988
rfingers 7.12502
rthumb -8.06381 3.07265
lclavicle 3.73715e-014 -3.73715e-014
lhumerus -50.3281 -25.1597 104.99
lradius 87.3912
lwrist -11.0834
lhand -42.726 -23.5636
lfingers 7.12502
lthumb -15.5945 5.82775
rfemur -2.17737 -2.89208 19.7945
rtibia 37.462
rfoot -27.3036 15.1942
rtoes -30.9745
lfemur -32.9009 5.03788 -15.8098
ltibia 82.9986
lfoot -16.4857 5.60821
ltoes -12.3106
258
root -10.4149 17.7444 9.81519 -1464.82 65.008 -30.8661
lowerback 0.764479 1.50777 8.89349
upperback 8.72839 1.7333 2.7397
thorax 9.04225 1.512 -1.89328
lowerneck -6.38257 4.66732 3.94756
upperneck 3.31892 6.34847 -8.00868
head 2.64351 3.00036 -3.05071
rclavicle 1.65985e-014 1.74931e-014
rhumerus -29.4088 13.4418 -97.8893
rradius 84.1626
rwrist 2.3438
rhand -34.6099 32.9647
rfingers 7.12502
rthumb -7.76826 3.12745
lclavicle 1.65985e-014 1.74931e-014
lhumerus -51.0707 -24.8761 104.88
lradius 87.5419
lwrist -10.9897
lhand -42.9282 -23.006
lfingers 7.12502
lthumb -15.7892 6.37009
rfemur -0.209009 -2.67747 19.5096
rtibia 35.5587
rfoot -25.7427 14.3708
rtoes -32.4481
lfemur -34.188 5.13926 -16.6415
ltibia 80.8351
lfoot -16.8665 5.2357
ltoes -11.1316
259
root -10.1224 17.83 9.9084 -1464.77 65.5765 -30.7854
lowerback 0.765715 1.78305 8.42433
upperback 8.54093 2.12991 2.67547
thorax 8.846 1.65999 -1.68204
lowerneck -6.45633 4.39274 3.79397
upperneck 3.80841 6.00811 -7.78974
head 2.7829 2.82526 -2.96446
rclavicle -1.61016e-014 -2.78299e-015
rhumerus -29.3855 14.044 -98.4412
rradius 84.9302
rwrist 2.39725
rhand -34.2322 32.9579
rfingers 7.12502
rthumb -7.40365 3.10746
lclavicle -1.61016e-014 -2.78299e-015
lhumerus -51.8342 -24.5646 104.807
lradius 87.7266
lwrist -10.8263
lhand -43.0703 -22.4222
lfingers 7.12502
lthumb -15.9261 6.94297
rfemur 1.76069 -2.51466 19.2733
rtibia 33.5737
rfoot -23.8384 13.5063
rtoes -33.9391
lfemur -35.2498 5.16797 -17.4117
ltibia 78.3227
lfoot -17.1522 4.77057
ltoes -9.68844
260
root -9.8225 17.923 9.99977 -1464.76 66.1372 -30.7671
lowerback 0.70062 2.05829 8.00087
upperback 8.35156 2.51649 2.60167
thorax 8.68588 1.80897 -1.50426
lowerneck -6.41981 4.11772 3.60519
upperneck 4.24936 5.66607 -7.53192
head 2.88367 2.6534 -2.86047
rclavicle 1.88845e-014 1.94809e-014
rhumerus -29.5336 14.5961 -98.9843
rradius 85.6991
rwrist 2.40728
rhand -33.7285 33.1988
rfingers 7.12502
rthumb -6.91751 3.33185
lclavicle 1.88845e-014 1.94809e-014
lhumerus -52.599 -24.2618 104.695
lradius 87.8176
lwrist -10.6531
lhand -43.2141 -22.2554
lfingers 7.12502
lthumb -16.0645 7.09872
rfemur 3.65943 -2.38756 19.0374
rtibia 31.6146
rfoot -21.5844 12.8282
rtoes -34.9613
lfemur -36.0934 5.20421 -18.1429
ltibia 75.5055
lfoot -17.331 4.30183
ltoes -8.69172
261
root -9.51752 18.0199 10.0884 -1464.87 66.6837 -30.8676
lowerback 0.607464 2.31178 7.65119
upperback 8.16086 2.86807 2.5212
thorax 8.54042 1.94783 -1.37523
lowerneck -6.20663 3.83825 3.43117
upperneck 4.60633 5.31342 -7.26808
head 2.92413 2.48187 -2.75986
rclavicle 8.75646e-014 5.96354e-015
rhumerus -29.7103 15.1415 -99.5365
rradius 86.1429
rwrist 2.2445
rhand -33.0017 33.9836
rfingers 7.12502
rthumb -6.21587 4.09483
lclavicle 8.75646e-014 5.96354e-015
lhumerus -53.3591 -23.9506 104.535
lradius 87.7905
lwrist -10.3903
lhand -43.4325 -22.5935
lfingers 7.12502
lthumb -16.2748 6.74347
rfemur 5.50294 -2.26878 18.7818
rtibia 29.7357
rfoot -18.9036 12.5251
rtoes -34.8104
lfemur -36.6836 5.20656 -18.8189
ltibia 72.4368
lfoot -17.3655 3.78381
ltoes -7.40196
262
root -9.20882 18.1123 10.1769 -1465.01 67.1996 -31.0525
lowerback 0.446715 2.56642 7.3358
upperback 7.9479 3.21267 2.44606
thorax 8.40983 2.08555 -1.25696
lowerneck -5.85306 3.56555 3.25404
upperneck 4.90085 4.96891 -7.01728
head 2.91947 2.31782 -2.66363
rclavicle 1.51076e-014 -2.22639e-014
rhumerus -29.9364 15.6376 -100.07
rradius 86.291
rwrist 2.25921
rhand -32.3008 34.8636
rfingers 7.12502
rthumb -5.53914 4.95599
lclavicle 1.51076e-014 -2.22639e-014
lhumerus -54.0899 -23.5926 104.378
lradius 87.6589
lwrist -10.2347
lhand -43.7423 -23.0507
lfingers 7.12502
lthumb -16.5731 6.26164
rfemur 7.23042 -2.22974 18.489
rtibia 27.952
rfoot -15.7953 12.4324
rtoes -33.8689
lfemur -37.123 5.24044 -19.4476
ltibia 69.1939
lfoot -17.2881 3.15797
ltoes -5.13991
263
root -8.89529 18.1985 10.2633 -1465.23 67.7129 -31.3151
lowerback 0.249114 2.81651 7.10181
upperback 7.72565 3.54707 2.32371
thorax 8.29807 2.22629 -1.23123
lowerneck -5.4471 3.3013 3.18815
upperneck 5.1669 4.62446 -6.76872
head 2.90092 2.15714 -2.58848
rclavicle -7.35503e-015 -2.90226e-014
rhumerus -30.2936 16.1249 -100.64
rradius 86.4396
rwrist 2.81025
rhand -32.0221 35.3945
rfingers 7.12502
rthumb -5.27006 5.48002
lclavicle -7.35503e-015 -2.90226e-014
lhumerus -54.7263 -23.3258 104.154
lradius 87.5134
lwrist -10.1535
lhand -44.0017 -23.2993
lfingers 7.12502
lthumb -16.8228 5.99192
rfemur 8.81993 -2.40502 18.1003
rtibia 26.3739
rfoot -12.2722 12.4466
rtoes -32.181
lfemur -37.3863 5.29377 -20.0787
ltibia 65.8536
lfoot -17.0957 2.72451
ltoes -3.55001
264
root -8.576 18.282 10.3495 -1465.53 68.2158 -31.6429
lowerback 0.0429358 3.04489 6.89211
upperback 7.52359 3.8514 2.19108
thorax 8.21351 2.35606 -1.22916
lowerneck -5.14939 3.09472 3.10063
upperneck 5.51078 4.36154 -6.52225
head 2.93444 2.03375 -2.50504
rclavicle -1.89839e-014 1.23246e-014
rhumerus -30.7212 16.708 -101.214
rradius 86.5716
rwrist 3.49273
rhand -32.0388 35.6382
rfingers 7.12502
rthumb -5.28623 5.7241
lclavicle -1.89839e-014 1.23246e-014
lhumerus -55.1964 -23.1281 103.888
lradius 87.3495
lwrist -9.99981
lhand -44.1195 -23.157
lfingers 7.12502
lthumb -16.9363 6.12454
rfemur 10.3692 -2.68723 17.6592
rtibia 24.8999
rfoot -8.63078 12.3981
rtoes -30.5351
lfemur -37.4948 5.45866 -20.7154
ltibia 62.4078
lfoot -16.8829 2.63647
ltoes -3.55677
265
root -8.25912 18.3411 10.4365 -1466.06 68.704 -32.1151
lowerback -0.113158 3.24401 6.75643
upperback 7.36084 4.12006 2.02866
thorax 8.14885 2.47686 -1.30168
lowerneck -4.86019 2.91458 3.06563
upperneck 5.80037 4.12266 -6.23552
head 2.95371 1.92521 -2.41587
rclavicle -3.42904e-014 -3.97569e-015
rhumerus -31.1397 17.2587 -101.832
rradius 86.6083
rwrist 4.21256
rhand -32.0943 35.7637
rfingers 7.12502
rthumb -5.33979 5.85099
lclavicle -3.42904e-014 -3.97569e-015
lhumerus -55.5926 -22.9973 103.554
lradius 87.1494
lwrist -9.80013
lhand -44.3402 -23.0041
lfingers 7.12502
lthumb -17.1486 6.2591
rfemur 11.8958 -3.01986 17.2199
rtibia 23.615
rfoot -5.17285 12.1321
rtoes -30.1126
lfemur -37.54 5.7418 -21.3149
ltibia 58.9864
lfoot -16.4888 2.61934
ltoes -3.90258
266
root -7.93179 18.4103 10.5203 -1466.67 69.1915 -32.6278
lowerback -0.238227 3.42727 6.65168
upperback 7.21077 4.37106 1.82911
thorax 8.08522 2.59314 -1.43206
lowerneck -4.62898 2.73617 3.11187
upperneck 6.16592 3.88163 -5.9391
head 3.01284 1.81646 -2.33838
rclavicle 2.98177e-014 2.74323e-014
rhumerus -31.5356 17.8366 -102.43
rradius 86.5892
rwrist 4.6781
rhand -32.1165 36.0006
rfingers 7.12502
rthumb -5.36121 6.08843
lclavicle 2.98177e-014 2.74323e-014
lhumerus -56.0383 -22.8832 103.193
lradius 86.985
lwrist -9.62092
lhand -44.6536 -23.1482
lfingers 7.12502
lthumb -17.4503 6.0885
rfemur 13.3512 -3.26474 16.8003
rtibia 22.5417
rfoot -1.99237 11.6802
rtoes -30.8052
lfemur -37.3262 6.11777 -21.9531
ltibia 55.5002
lfoot -16.0571 2.41368
ltoes -3.94365
267
root -7.60108 18.4702 10.6022 -1467.43 69.66 -33.3316
lowerback -0.447903 3.57817 6.62388
upperback 7.09186 4.56843 1.61906
thorax 8.11041 2.6909 -1.61128
lowerneck -4.46782 2.5892 3.16343
upperneck 6.51905 3.6787 -5.63222
head 3.0837 1.72683 -2.25606
rclavicle -9.54166e-015 -3.97569e-015
rhumerus -31.8782 18.4673 -103.004
rradius 86.5422
rwrist 4.9823
rhand -32.0187 36.5064
rfingers 7.12502
rthumb -5.26675 6.5918
lclavicle -9.54166e-015 -3.97569e-015
lhumerus -56.4616 -22.7926 102.807
lradius 86.8678
lwrist -9.36119
lhand -45.1105 -23.4648
lfingers 7.12502
lthumb -17.89 5.73235
rfemur 14.5286 -3.5587 16.4321
rtibia 21.8301
rfoot 1.14528 11.2814
rtoes -31.7765
lfemur -37.0341 6.60215 -22.5869
ltibia 52.0955
lfoot -15.7319 1.99475
ltoes -4.6196
268
root -7.266 18.5291 10.6825 -1468.28 70.1026 -34.1689
lowerback -0.727696 3.71862 6.64214
upperback 6.97461 4.74452 1.3977
thorax 8.18385 2.78219 -1.82302
lowerneck -4.31973 2.45702 3.22833
upperneck 6.85427 3.48967 -5.28978
head 3.15178 1.64638 -2.16337
rclavicle -1.19271e-015 6.75868e-015
rhumerus -32.2094 19.1114 -103.597
rradius 86.5313
rwrist 5.31874
rhand -31.7873 36.9642
rfingers 7.12502
rthumb -5.04335 7.04422
lclavicle -1.19271e-015 6.75868e-015
lhumerus -56.7825 -22.7539 102.378
lradius 86.7074
lwrist -8.98329
lhand -45.5949 -23.9003
lfingers 7.12502
lthumb -18.3561 5.2536
rfemur 15.3981 -3.80214 16.1649
rtibia 21.3877
rfoot 4.28971 10.9171
rtoes -32.6947
lfemur -36.6795 7.12394 -23.1998
ltibia 48.7651
lfoot -15.2886 1.48613
ltoes -5.06332
